#!OML:ASF E:\emotionWalksFemale\Project 1\Capture day 1\Session 1\Female1.ASF
:FULLY-SPECIFIED
:DEGREES
591
root 8.07918 14.8524 16.7874 182.65 24.5078 176.575
lowerback 6.52489 -6.82798 3.92411
upperback -1.1142 -7.7669 8.83664
thorax -4.10937 -3.59064 7.86923
lowerneck 1.05379 9.50217 11.2832
upperneck 10.3505 14.1328 -12.1719
head 4.57947 7.09469 -4.8761
rclavicle -3.73715e-014 -8.90555e-014
rhumerus -50.4528 1.91134 -56.4574
rradius 49.0334
rwrist 19.4682
rhand -15.9411 -56.1107
rfingers 7.12502
rthumb -169.743 94.1593
lclavicle -3.73715e-014 -8.90555e-014
lhumerus -33.5103 -2.36409 80.0716
lradius 43.0767
lwrist -5.81562
lhand -13.3529 -33.0814
lfingers 7.12502
lthumb 12.753 -3.49084
rfemur -29.2194 14.3924 24.4432
rtibia 44.7459
rfoot -19.7955 -20.3038
rtoes 14.5401
lfemur -7.36997 19.8405 -28.0611
ltibia 66.5316
lfoot 7.66427 -4.1335
ltoes -37.1136
592
root 8.10333 14.8279 16.7022 182.603 24.6347 176.961
lowerback 6.29438 -6.54099 4.38324
upperback -0.743782 -7.42604 8.52681
thorax -3.72667 -3.44383 7.18807
lowerneck 0.734403 9.35599 11.765
upperneck 10.2888 13.8585 -12.1169
head 4.61115 6.959 -4.93898
rclavicle 2.46493e-014 6.36111e-014
rhumerus -50.1434 0.956549 -57.0823
rradius 48.6784
rwrist 19.6718
rhand -15.9653 -56.0605
rfingers 7.12502
rthumb -169.766 94.2085
lclavicle 2.46493e-014 6.36111e-014
lhumerus -33.3294 -3.0947 79.9197
lradius 43.479
lwrist -5.90607
lhand -13.9372 -33.1787
lfingers 7.12502
lthumb 12.1896 -3.55383
rfemur -28.8723 14.3584 24.9885
rtibia 45.3062
rfoot -20.2098 -20.4204
rtoes 13.6571
lfemur -8.90164 20.6942 -27.2162
ltibia 69.9794
lfoot 6.18556 -4.85275
ltoes -43.0357
593
root 8.12409 14.7918 16.6296 182.516 24.5797 177.267
lowerback 6.35373 -6.46199 4.44766
upperback -0.496894 -7.32716 8.48418
thorax -3.52325 -3.39606 7.08412
lowerneck 0.595432 9.3002 11.8655
upperneck 10.0758 13.7549 -12.2743
head 4.57485 6.89993 -5.00741
rclavicle 2.22639e-013 -3.18055e-015
rhumerus -49.4579 0.821031 -57.5961
rradius 48.2795
rwrist 19.7681
rhand -15.6441 -56.5972
rfingers 7.12502
rthumb -169.457 93.6872
lclavicle 2.22639e-013 -3.18055e-015
lhumerus -33.4415 -3.01515 79.9277
lradius 44.1362
lwrist -5.86489
lhand -14.1853 -33.246
lfingers 7.12502
lthumb 11.9505 -3.60709
rfemur -28.5729 14.1664 25.4597
rtibia 45.879
rfoot -20.7689 -20.4109
rtoes 13.8678
lfemur -10.5142 21.0688 -26.4791
ltibia 73.3666
lfoot 5.30785 -5.10666
ltoes -43.9486
594
root 8.14158 14.7455 16.5607 182.353 24.4227 177.689
lowerback 6.68909 -6.44472 4.60747
upperback -0.308758 -7.25536 8.49136
thorax -3.53989 -3.35487 7.02535
lowerneck 0.47311 9.24741 11.846
upperneck 9.86178 13.6589 -12.4028
head 4.52589 6.84342 -5.04891
rclavicle -1.66979e-014 3.81667e-014
rhumerus -48.7367 0.754993 -57.9913
rradius 47.8269
rwrist 20.1228
rhand -14.8302 -56.9911
rfingers 7.12502
rthumb -168.671 93.3349
lclavicle -1.66979e-014 3.81667e-014
lhumerus -33.6221 -2.84958 80.0053
lradius 44.8554
lwrist -5.46835
lhand -13.7617 -33.4679
lfingers 7.12502
lthumb 12.3589 -3.85319
rfemur -28.1938 13.8827 26.0563
rtibia 46.4841
rfoot -21.2714 -20.4694
rtoes 13.9563
lfemur -12.0341 20.7894 -25.58
ltibia 76.509
lfoot 5.32003 -4.79591
ltoes -34.3781
595
root 8.16158 14.7047 16.4916 182.336 24.2832 178.29
lowerback 7.00508 -6.34482 5.0947
upperback -0.127898 -7.05112 8.39358
thorax -3.6185 -3.2528 6.66054
lowerneck 0.0100274 9.2 11.8831
upperneck 9.88273 13.5157 -12.239
head 4.58385 6.75714 -4.99129
rclavicle -3.77691e-014 -3.18055e-015
rhumerus -48.1182 0.245455 -58.425
rradius 47.3297
rwrist 20.9308
rhand -13.8869 -56.1883
rfingers 7.12502
rthumb -167.762 94.1897
lclavicle -3.77691e-014 -3.18055e-015
lhumerus -33.6978 -3.19668 80.019
lradius 45.4907
lwrist -4.78952
lhand -13.8751 -33.7646
lfingers 7.12502
lthumb 12.2496 -4.14334
rfemur -27.8958 13.6926 26.8136
rtibia 47.0845
rfoot -21.6048 -20.7511
rtoes 13.2406
lfemur -13.7681 20.9236 -24.508
ltibia 79.8682
lfoot 4.49695 -5.43763
ltoes -33.6606
596
root 8.18298 14.6571 16.4316 182.419 23.9995 178.904
lowerback 7.71187 -6.75869 4.95736
upperback -0.440038 -7.43074 8.90073
thorax -4.23061 -3.40486 7.44247
lowerneck 0.917601 9.42416 10.9391
upperneck 9.56259 13.9395 -12.3036
head 4.32537 6.98181 -4.88474
rclavicle 5.68524e-014 7.95139e-014
rhumerus -47.2152 2.15929 -58.8012
rradius 46.8675
rwrist 21.2776
rhand -13.191 -54.8053
rfingers 7.12502
rthumb -167.091 95.614
lclavicle 5.68524e-014 7.95139e-014
lhumerus -35.1928 -1.54054 80.328
lradius 46.5359
lwrist -4.46948
lhand -14.2863 -33.9275
lfingers 7.12502
lthumb 11.853 -4.28298
rfemur -27.7343 13.4361 27.5811
rtibia 47.671
rfoot -21.9652 -21.1035
rtoes 12.3668
lfemur -15.6789 20.8898 -23.4021
ltibia 83.1645
lfoot 4.30748 -5.58607
ltoes -29.4046
